# xmcd CD database file
#
# Track frame offsets:
#	150
#	15695
#	31498
#	47458
#	58038
#	73193
#	86575
#	101503
#	117325
#	133280
#	146975
#	161163
#	176295
#	188703
#	203603
#	217183
#
# Disc length: 3110 seconds
#
# Revision: 3
# Processed by: cddbd v1.5.2PL0 Copyright (c) Steve Scherf et al.
# Submitted via: CDex 1.70beta2
#
DISCID=ee0c2410
DTITLE=Glenn Miller - Mood Swings
DYEAR=1995
DGENRE=Jazz
TTITLE0=Moonlight Serenade
TTITLE1=Serenade In Blue
TTITLE2=Chattanooga Choo Choo
TTITLE3=It Happened In Sun Valley
TTITLE4=American Patrol
TTITLE5=Bugle Call Rag
TTITLE6=I've Got A Girl In Kalamazoo
TTITLE7=The Spirit Is Willing
TTITLE8=Tuxedo Junction
TTITLE9=I Know Why
TTITLE10=At Last
TTITLE11=A String Of Pearls
TTITLE12=Measure For Measure
TTITLE13=Pennsylvania 6-5000
TTITLE14=Sun Valley Jump
TTITLE15=In The Mood
EXTD=YEAR: 1995
EXTT0=
EXTT1=
EXTT2=
EXTT3=
EXTT4=
EXTT5=
EXTT6=
EXTT7=
EXTT8=
EXTT9=
EXTT10=
EXTT11=
EXTT12=
EXTT13=
EXTT14=
EXTT15=
PLAYORDER=
